<svg width="164" height="80" viewBox="0 0 164 80" fill="none" xmlns="http://www.w3.org/2000/svg">
<path d="M54.1913 37.5978C54.1484 33.1689 57.8689 31.0411 58.0363 30.9397C55.9422 27.9295 52.6893 27.5157 51.5307 27.4693C48.7628 27.1906 46.1279 29.0736 44.7204 29.0736C43.3128 29.0736 41.1457 27.5073 38.8498 27.5537C35.8288 27.596 33.0437 29.2805 31.4859 31.9403C28.3533 37.2853 30.6878 45.2226 33.7475 49.567C35.2451 51.6907 37.0217 54.0845 39.3648 53.9958C41.622 53.9072 42.4717 52.5604 45.1924 52.5604C47.9131 52.5604 48.6812 53.9958 51.0629 53.9536C53.4875 53.9072 55.0238 51.7835 56.5086 49.6514C58.2165 47.1816 58.9246 44.7962 58.9675 44.6695C58.9117 44.6484 54.2428 42.8879 54.1913 37.5978Z" fill="#6C727F"/>
<path d="M49.7152 24.5899C50.9597 23.108 51.7965 21.0519 51.5691 19C49.7796 19.0718 47.6125 20.1737 46.3294 21.6556C45.1793 22.9644 44.1709 25.0585 44.4455 27.0682C46.4324 27.2201 48.475 26.0676 49.7152 24.5899ZM69.8844 41.9505L67.8246 48.0935H65.1768L71.9185 28.5712H75.0082L81.7756 48.0935H79.0378L76.9179 41.9505H69.8844ZM76.39 39.9789L74.4504 34.3595C74.0084 33.0844 73.7166 31.9276 73.4205 30.7961H73.3647C73.0686 31.953 72.7467 33.1393 72.3648 34.3299L70.4251 39.9747L76.39 39.9789ZM83.784 38.649C83.784 36.8546 83.7282 35.4023 83.6638 34.0724H85.9897L86.1099 36.4789H86.1657C87.2256 34.769 88.9035 33.7557 91.2294 33.7557C94.6753 33.7557 97.263 36.6224 97.263 40.8824C97.263 45.9234 94.1432 48.4101 90.7874 48.4101C88.9035 48.4101 87.2557 47.5995 86.4017 46.2105H86.3459V53.8269H83.784V38.649ZM86.3416 42.3854C86.3416 42.7654 86.3974 43.1074 86.4618 43.4282C86.9338 45.193 88.4916 46.4131 90.3497 46.4131C93.0876 46.4131 94.6796 44.2135 94.6796 40.9964C94.6796 38.1846 93.1777 35.7865 90.4398 35.7865C88.6761 35.7865 87.0282 37.032 86.5218 38.9445C86.4317 39.2612 86.3459 39.6411 86.3459 39.9873L86.3416 42.3854ZM99.9408 38.649C99.9408 36.8546 99.885 35.4023 99.8206 34.0724H102.147L102.267 36.4789H102.322C103.382 34.769 105.06 33.7557 107.386 33.7557C110.832 33.7557 113.42 36.6224 113.42 40.8824C113.42 45.9234 110.3 48.4101 106.944 48.4101C105.06 48.4101 103.412 47.5995 102.558 46.2105H102.503V53.8269H99.9408V38.649ZM102.503 42.3854C102.503 42.7654 102.558 43.1074 102.623 43.4282C103.095 45.193 104.653 46.4131 106.511 46.4131C109.249 46.4131 110.841 44.2135 110.841 40.9964C110.841 38.1846 109.339 35.7865 106.601 35.7865C104.837 35.7865 103.189 37.032 102.683 38.9445C102.593 39.2612 102.507 39.6411 102.507 39.9873L102.503 42.3854ZM116.102 27.5283H118.694V48.0893H116.102V27.5283ZM123.903 41.5452C123.959 44.9903 126.199 46.4131 128.787 46.4131C130.641 46.4131 131.761 46.0965 132.731 45.6912L133.173 47.5151C132.263 47.9204 130.701 48.3848 128.435 48.3848C124.049 48.3848 121.427 45.5476 121.427 41.3172C121.427 37.0869 123.959 33.7557 128.109 33.7557C132.761 33.7557 133.997 37.7793 133.997 40.3589C133.997 40.8824 133.941 41.2835 133.907 41.5452H123.903ZM131.499 39.7214C131.529 38.1001 130.821 35.5796 127.907 35.5796C125.285 35.5796 124.14 37.9566 123.934 39.7214H131.499Z" fill="#6C727F"/>
</svg>
