<svg width="110" height="67" viewBox="0 0 110 67" fill="none" xmlns="http://www.w3.org/2000/svg">
<path d="M0.642568 65.5785V55.7228L24.0642 34.4003C26.0562 32.505 27.7268 30.7992 29.0762 29.2829C30.447 27.7666 31.4859 26.2819 32.1927 24.8289C32.8995 23.3547 33.2529 21.7647 33.2529 20.0589C33.2529 18.1636 32.8138 16.5315 31.9357 15.1627C31.0575 13.7728 29.858 12.7093 28.3373 11.9722C26.8165 11.2141 25.0923 10.835 23.1646 10.835C21.1512 10.835 19.3949 11.2351 17.8955 12.0354C16.3962 12.8356 15.2396 13.9833 14.4257 15.4785C13.6117 16.9738 13.2048 18.7533 13.2048 20.8171H0C0 16.5842 0.974562 12.9093 2.92369 9.79255C4.87281 6.67578 7.60373 4.2645 11.1164 2.5587C14.6291 0.852898 18.6773 0 23.261 0C27.9731 0 32.0749 0.821311 35.5662 2.46393C39.0789 4.0855 41.8098 6.33883 43.7589 9.22395C45.708 12.1091 46.6826 15.4154 46.6826 19.1429C46.6826 21.5857 46.19 23.997 45.2047 26.3767C44.2408 28.7564 42.5166 31.3993 40.032 34.3055C37.5474 37.1906 34.0454 40.6549 29.526 44.6983L19.9196 53.9538V54.396H47.5501V65.5785H0.642568Z" fill="#181D25"/>
<path d="M83.4295 67C77.9034 66.9789 73.1484 65.6417 69.1645 62.9882C65.202 60.3348 62.1498 56.4914 60.0079 51.4583C57.8874 46.4251 56.8379 40.3706 56.8593 33.2947C56.8593 26.2398 57.9195 20.2274 60.04 15.2574C62.1819 10.2874 65.2341 6.50731 69.1966 3.91702C73.1805 1.30567 77.9248 0 83.4295 0C88.9342 0 93.6677 1.30567 97.6302 3.91702C101.614 6.52837 104.677 10.319 106.819 15.289C108.961 20.2379 110.021 26.2398 110 33.2947C110 40.3916 108.929 46.4567 106.787 51.4899C104.666 56.523 101.625 60.3663 97.6624 63.0198C93.6999 65.6733 88.9556 67 83.4295 67ZM83.4295 55.6596C87.1992 55.6596 90.2086 53.7958 92.4576 50.0684C94.7066 46.3409 95.8203 40.7496 95.7989 33.2947C95.7989 28.3879 95.2849 24.3024 94.2568 21.0382C93.2501 17.774 91.815 15.3206 89.9516 13.678C88.1095 12.0354 85.9355 11.2141 83.4295 11.2141C79.6812 11.2141 76.6825 13.0567 74.4335 16.7421C72.1845 20.4275 71.0493 25.945 71.0279 33.2947C71.0279 38.2647 71.5312 42.4133 72.5379 45.7407C73.5661 49.047 75.0118 51.532 76.8753 53.1957C78.7387 54.8383 80.9235 55.6596 83.4295 55.6596Z" fill="#181D25"/>
</svg>
