<svg width="40" height="67" viewBox="0 0 40 67" fill="none" xmlns="http://www.w3.org/2000/svg">
<path d="M21.946 32.5491V30.523C21.946 28.9846 22.2831 27.5713 22.9572 26.2831C23.6444 24.9824 24.6361 23.9444 25.9326 23.1689C27.2419 22.381 28.8366 21.987 30.7164 21.987C32.6221 21.987 34.2232 22.3747 35.5197 23.1502C36.829 23.9256 37.8143 24.9637 38.4755 26.2644C39.1497 27.5526 39.4867 28.9721 39.4867 30.523V32.5491C39.4867 34.0874 39.1497 35.5069 38.4755 36.8076C37.8014 38.0958 36.8096 39.1277 35.5002 39.9031C34.1908 40.691 32.5962 41.085 30.7164 41.085C28.8106 41.085 27.2095 40.691 25.9131 39.9031C24.6167 39.1277 23.6314 38.0958 22.9572 36.8076C22.2831 35.5069 21.946 34.0874 21.946 32.5491ZM27.6049 30.523V32.5491C27.6049 33.437 27.8253 34.275 28.2661 35.0629C28.7199 35.8509 29.5366 36.2448 30.7164 36.2448C31.8961 36.2448 32.6999 35.8571 33.1277 35.0817C33.5685 34.3063 33.7889 33.4621 33.7889 32.5491V30.523C33.7889 29.61 33.5815 28.7595 33.1666 27.9716C32.7518 27.1836 31.935 26.7897 30.7164 26.7897C29.5496 26.7897 28.7393 27.1836 28.2856 27.9716C27.8318 28.7595 27.6049 29.61 27.6049 30.523ZM1.50781 10.562V8.53592C1.50781 6.98507 1.85137 5.56554 2.53847 4.27734C3.22558 2.97663 4.21735 1.93856 5.51378 1.16314C6.82317 0.387713 8.40482 0 10.2587 0C12.1774 0 13.785 0.387713 15.0814 1.16314C16.3779 1.93856 17.3631 2.97663 18.0373 4.27734C18.7114 5.56554 19.0485 6.98507 19.0485 8.53592V10.562C19.0485 12.1129 18.705 13.5324 18.0178 14.8206C17.3437 16.1088 16.3519 17.1406 15.0425 17.9161C13.7461 18.679 12.1515 19.0604 10.2587 19.0604C8.36593 19.0604 6.76484 18.6727 5.45544 17.8973C4.15901 17.1094 3.17372 16.0775 2.49958 14.8018C1.8384 13.5136 1.50781 12.1004 1.50781 10.562ZM7.20562 8.53592V10.562C7.20562 11.475 7.42602 12.3192 7.8668 13.0947C8.32055 13.8701 9.11786 14.2578 10.2587 14.2578C11.4514 14.2578 12.2617 13.8701 12.6895 13.0947C13.1303 12.3192 13.3507 11.475 13.3507 10.562V8.53592C13.3507 7.62292 13.1433 6.77246 12.7284 5.98452C12.3136 5.19659 11.4903 4.80263 10.2587 4.80263C9.10489 4.80263 8.30759 5.20285 7.8668 6.00328C7.42602 6.80372 7.20562 7.64793 7.20562 8.53592ZM4.07474 39.753L31.4553 1.33198H36.5503L9.16971 39.753H4.07474Z" fill="#181D25"/>
<path d="M14.7847 59.3249C14.7847 60.9689 14.457 62.3624 13.8016 63.5053C13.1462 64.6483 12.2588 65.5165 11.1396 66.1099C10.0254 66.7033 8.77503 67 7.38857 67C5.99707 67 4.74421 66.7008 3.63 66.1026C2.51579 65.5044 1.63098 64.6362 0.975564 63.4981C0.325188 62.3551 0 60.964 0 59.3249C0 57.681 0.325188 56.2875 0.975564 55.1445C1.63098 54.0015 2.51579 53.1334 3.63 52.54C4.74421 51.9466 5.99707 51.6499 7.38857 51.6499C8.77503 51.6499 10.0254 51.9466 11.1396 52.54C12.2588 53.1334 13.1462 54.0015 13.8016 55.1445C14.457 56.2875 14.7847 57.681 14.7847 59.3249ZM10.9581 59.3249C10.9581 58.3522 10.8144 57.5302 10.527 56.859C10.2447 56.1878 9.8363 55.6795 9.30189 55.3342C8.77251 54.9889 8.13474 54.8162 7.38857 54.8162C6.64744 54.8162 6.00967 54.9889 5.47526 55.3342C4.94084 55.6795 4.52994 56.1878 4.24257 56.859C3.96023 57.5302 3.81907 58.3522 3.81907 59.3249C3.81907 60.2977 3.96023 61.1197 4.24257 61.7909C4.52994 62.4621 4.94084 62.9703 5.47526 63.3157C6.00967 63.661 6.64744 63.8337 7.38857 63.8337C8.13474 63.8337 8.77251 63.661 9.30189 63.3157C9.8363 62.9703 10.2447 62.4621 10.527 61.7909C10.8144 61.1197 10.9581 60.2977 10.9581 59.3249Z" fill="#181D25"/>
<path d="M16.9703 66.7957V51.8542H27.5427V54.787H20.7137V57.8512H26.8696V60.7914H20.7137V66.7957H16.9703Z" fill="#181D25"/>
<path d="M29.4276 66.7957V51.8542H40V54.787H33.1711V57.8512H39.3269V60.7914H33.1711V66.7957H29.4276Z" fill="#181D25"/>
</svg>
