<svg width="16" height="16" viewBox="0 0 16 16" fill="none" xmlns="http://www.w3.org/2000/svg">
<path fill-rule="evenodd" clip-rule="evenodd" d="M7.99992 1.3335C7.63537 1.3335 7.27022 1.44308 6.95725 1.66216L2.10877 5.0561C1.62273 5.39634 1.33325 5.95232 1.33325 6.54562V12.8486C1.33325 13.8528 2.14728 14.6668 3.15143 14.6668H12.8484C13.8526 14.6668 14.6666 13.8528 14.6666 12.8486V6.54562C14.6666 5.95232 14.3771 5.39634 13.8911 5.0561L9.04259 1.66216C8.72962 1.44308 8.36446 1.3335 7.99992 1.3335ZM13.4545 6.54562C13.4545 6.34785 13.358 6.16253 13.196 6.04911L8.34749 2.65517C8.24307 2.58211 8.1218 2.54562 7.99992 2.54562C7.87804 2.54562 7.75677 2.58211 7.65234 2.65517L2.80388 6.04911C2.64186 6.16253 2.54537 6.34785 2.54537 6.54562V12.8486C2.54537 13.1834 2.81672 13.4547 3.15143 13.4547H5.57568V11.0305C5.57568 10.0263 6.38971 9.21228 7.39386 9.21228H8.60598C9.61016 9.21228 10.4242 10.0263 10.4242 11.0305V13.4547H12.8484C13.1831 13.4547 13.4545 13.1834 13.4545 12.8486V6.54562ZM9.21204 13.4547V11.0305C9.21204 10.6957 8.94071 10.4244 8.60598 10.4244H7.39386C7.05913 10.4244 6.7878 10.6957 6.7878 11.0305V13.4547H9.21204Z" fill="#333D4C"/>
</svg>
