<svg width="64" height="64" viewBox="0 0 64 64" fill="none" xmlns="http://www.w3.org/2000/svg">
<rect width="64" height="64" rx="32" fill="white"/>
<path fill-rule="evenodd" clip-rule="evenodd" d="M28.8024 22.48C28.9957 22.9229 28.7933 23.4387 28.3504 23.632C26.9842 24.2281 25.785 25.1498 24.8574 26.3166C23.9298 27.4833 23.3021 28.8595 23.0292 30.3248C22.7563 31.7902 22.8466 33.3 23.292 34.7224C23.7375 36.1449 24.5246 37.4365 25.5846 38.4844C26.6446 39.5323 27.9451 40.3047 29.3725 40.7339C30.7999 41.163 32.3107 41.236 33.7728 40.9465C35.235 40.6569 36.6039 40.0135 37.76 39.0727C38.916 38.1318 39.824 36.9221 40.4045 35.5492C40.5927 35.1041 41.1061 34.8959 41.5512 35.0841C41.9963 35.2723 42.2045 35.7857 42.0163 36.2308C41.3245 37.8669 40.2424 39.3086 38.8646 40.4299C37.4868 41.5513 35.8554 42.318 34.1128 42.6631C32.3703 43.0082 30.5697 42.9212 28.8686 42.4097C27.1674 41.8982 25.6175 40.9778 24.3542 39.7289C23.091 38.48 22.1529 36.9407 21.622 35.2455C21.0911 33.5503 20.9836 31.7508 21.3088 30.0044C21.634 28.2581 22.382 26.618 23.4875 25.2275C24.593 23.837 26.0223 22.7385 27.6504 22.028C28.0934 21.8348 28.6091 22.0371 28.8024 22.48Z" fill="#2F6ED5"/>
<path fill-rule="evenodd" clip-rule="evenodd" d="M31.3817 21.3813C31.5458 21.2172 31.7683 21.125 32.0004 21.125C33.4285 21.125 34.8427 21.4063 36.1621 21.9528C37.4815 22.4993 38.6804 23.3004 39.6902 24.3102C40.7 25.3201 41.5011 26.5189 42.0476 27.8383C42.5941 29.1577 42.8754 30.5719 42.8754 32C42.8754 32.4832 42.4837 32.875 42.0004 32.875H32.0004C31.5172 32.875 31.1254 32.4832 31.1254 32V22C31.1254 21.7679 31.2176 21.5454 31.3817 21.3813ZM32.8754 22.917V31.125H41.0834C40.9968 30.2268 40.7774 29.3447 40.4308 28.508C39.9722 27.4009 39.3001 26.395 38.4528 25.5477C37.6054 24.7003 36.5995 24.0282 35.4924 23.5696C34.6557 23.223 33.7736 23.0036 32.8754 22.917Z" fill="#2F6ED5"/>
</svg>
