<svg width="64" height="64" viewBox="0 0 64 64" fill="none" xmlns="http://www.w3.org/2000/svg">
<rect width="64" height="64" rx="32" fill="white"/>
<path fill-rule="evenodd" clip-rule="evenodd" d="M34.836 22.4856C35.6096 22.165 36.4389 22 37.2763 22C38.1137 22 38.9429 22.165 39.7166 22.4856C40.4902 22.8061 41.1931 23.276 41.7852 23.8683C42.3773 24.4602 42.8471 25.163 43.1676 25.9365C43.4881 26.7102 43.6531 27.5394 43.6531 28.3768C43.6531 29.2143 43.4881 30.0435 43.1676 30.8171C42.847 31.5907 42.3772 32.2936 41.785 32.8855C41.785 32.8856 41.7851 32.8855 41.785 32.8855L32.945 41.7255C32.6033 42.0673 32.0493 42.0673 31.7076 41.7255L22.8676 32.8855C21.6718 31.6898 21 30.0679 21 28.3768C21 26.6857 21.6718 25.0639 22.8676 23.8681C24.0634 22.6723 25.6852 22.0005 27.3763 22.0005C29.0674 22.0005 30.6892 22.6723 31.885 23.8681L32.3263 24.3094L32.7674 23.8683C33.3594 23.276 34.0623 22.8061 34.836 22.4856ZM40.5474 25.1054C40.1179 24.6757 39.608 24.3348 39.0467 24.1023C38.4854 23.8697 37.8838 23.75 37.2763 23.75C36.6687 23.75 36.0672 23.8697 35.5059 24.1023C34.9446 24.3348 34.4347 24.6757 34.0052 25.1054L32.945 26.1655C32.6033 26.5073 32.0493 26.5073 31.7076 26.1655L30.6476 25.1055C29.78 24.2379 28.6033 23.7505 27.3763 23.7505C26.1493 23.7505 24.9726 24.2379 24.105 25.1055C23.2374 25.9731 22.75 27.1499 22.75 28.3768C22.75 29.6038 23.2374 30.7805 24.105 31.6481L32.3263 39.8694L40.5476 31.6481C40.9773 31.2186 41.3183 30.7085 41.5508 30.1472C41.7834 29.586 41.9031 28.9844 41.9031 28.3768C41.9031 27.7693 41.7834 27.1677 41.5508 26.6064C41.3183 26.0451 40.9771 25.5349 40.5474 25.1054Z" fill="#2F6ED5"/>
</svg>
