<svg width="19" height="18" viewBox="0 0 19 18" fill="none" xmlns="http://www.w3.org/2000/svg">
<path fill-rule="evenodd" clip-rule="evenodd" d="M4.25 8.90625C3.78401 8.90625 3.40625 9.28401 3.40625 9.75V15C3.40625 15.466 3.78401 15.8438 4.25 15.8438H14.75C15.216 15.8438 15.5938 15.466 15.5938 15V9.75C15.5938 9.28401 15.216 8.90625 14.75 8.90625H4.25ZM2.09375 9.75C2.09375 8.55914 3.05914 7.59375 4.25 7.59375H14.75C15.9409 7.59375 16.9062 8.55914 16.9062 9.75V15C16.9062 16.1909 15.9409 17.1562 14.75 17.1562H4.25C3.05914 17.1562 2.09375 16.1909 2.09375 15V9.75Z" fill="#CAD0D9"/>
<path fill-rule="evenodd" clip-rule="evenodd" d="M9.5 2.15625C8.67949 2.15625 7.89258 2.4822 7.31239 3.06239C6.7322 3.64258 6.40625 4.42949 6.40625 5.25V8.25C6.40625 8.61244 6.11244 8.90625 5.75 8.90625C5.38756 8.90625 5.09375 8.61244 5.09375 8.25V5.25C5.09375 4.08139 5.55798 2.96064 6.38431 2.13431C7.21064 1.30798 8.33139 0.84375 9.5 0.84375C10.6686 0.84375 11.7894 1.30798 12.6157 2.13431C13.442 2.96064 13.9062 4.08139 13.9062 5.25V8.25C13.9062 8.61244 13.6124 8.90625 13.25 8.90625C12.8876 8.90625 12.5938 8.61244 12.5938 8.25V5.25C12.5938 4.42949 12.2678 3.64258 11.6876 3.06239C11.1074 2.4822 10.3205 2.15625 9.5 2.15625Z" fill="#CAD0D9"/>
</svg>
