<svg width="19" height="18" viewBox="0 0 19 18" fill="none" xmlns="http://www.w3.org/2000/svg">
<path fill-rule="evenodd" clip-rule="evenodd" d="M9.5 1.5C9.08989 1.5 8.67909 1.62328 8.327 1.86975L2.87246 5.68793C2.32566 6.0707 2 6.69618 2 7.36364V14.4545C2 15.5842 2.91578 16.5 4.04545 16.5H14.9545C16.0843 16.5 17 15.5842 17 14.4545V7.36364C17 6.69618 16.6744 6.0707 16.1275 5.68793L10.673 1.86975C10.3209 1.62328 9.91011 1.5 9.5 1.5ZM15.6364 7.36364C15.6364 7.14115 15.5278 6.93266 15.3456 6.80507L9.89102 2.98689C9.77355 2.90469 9.63711 2.86364 9.5 2.86364C9.36289 2.86364 9.22645 2.90469 9.10898 2.98689L3.65446 6.80507C3.47219 6.93266 3.36364 7.14115 3.36364 7.36364V14.4545C3.36364 14.8311 3.6689 15.1364 4.04545 15.1364H6.77273V12.4091C6.77273 11.2794 7.68851 10.3636 8.81818 10.3636H10.1818C11.3115 10.3636 12.2273 11.2794 12.2273 12.4091V15.1364H14.9545C15.3311 15.1364 15.6364 14.8311 15.6364 14.4545V7.36364ZM10.8636 15.1364V12.4091C10.8636 12.0325 10.5584 11.7273 10.1818 11.7273H8.81818C8.44161 11.7273 8.13636 12.0325 8.13636 12.4091V15.1364H10.8636Z" fill="#E0E5EB"/>
</svg>
