<svg width="14" height="14" viewBox="0 0 14 14" fill="none" xmlns="http://www.w3.org/2000/svg">
<path d="M9.91669 3.57288H4.08335C3.80146 3.57288 3.57294 3.8014 3.57294 4.08329C3.57294 4.36519 3.80146 4.59371 4.08335 4.59371H8.68443L3.72243 9.55571C3.5231 9.75504 3.5231 10.0782 3.72243 10.2775C3.92176 10.4769 4.24494 10.4769 4.44427 10.2775L9.40627 5.31555V9.91663C9.40627 10.1985 9.63479 10.427 9.91669 10.427C10.1986 10.427 10.4271 10.1985 10.4271 9.91663V4.08329C10.4271 3.9429 10.3704 3.81574 10.2787 3.72346L10.2765 3.72129C10.2278 3.67289 10.1718 3.63633 10.1121 3.61161C10.0519 3.58665 9.98589 3.57288 9.91669 3.57288Z" fill="white"/>
</svg>
