<svg width="64" height="64" viewBox="0 0 64 64" fill="none" xmlns="http://www.w3.org/2000/svg">
<rect width="64" height="64" rx="32" fill="white"/>
<path fill-rule="evenodd" clip-rule="evenodd" d="M24.0001 24.875C23.3833 24.875 22.8751 25.3832 22.8751 26V38C22.8751 38.6168 23.3833 39.125 24.0001 39.125H40.0001C40.6168 39.125 41.1251 38.6168 41.1251 38V26C41.1251 25.3832 40.6168 24.875 40.0001 24.875H24.0001ZM21.1251 26C21.1251 24.4168 22.4168 23.125 24.0001 23.125H40.0001C41.5833 23.125 42.8751 24.4168 42.8751 26V38C42.8751 39.5832 41.5833 40.875 40.0001 40.875H24.0001C22.4168 40.875 21.1251 39.5832 21.1251 38V26Z" fill="#2F6ED5"/>
<path fill-rule="evenodd" clip-rule="evenodd" d="M21.2832 25.4982C21.5604 25.1023 22.106 25.006 22.5019 25.2832L32.0001 31.9319L41.4983 25.2832C41.8942 25.006 42.4398 25.1023 42.7169 25.4982C42.994 25.8941 42.8977 26.4397 42.5019 26.7168L32.5019 33.7168C32.2006 33.9277 31.7996 33.9277 31.4983 33.7168L21.4983 26.7168C21.1024 26.4397 21.0061 25.8941 21.2832 25.4982Z" fill="#2F6ED5"/>
</svg>
