<svg width="64" height="64" viewBox="0 0 64 64" fill="none" xmlns="http://www.w3.org/2000/svg">
<rect width="64" height="64" rx="32" fill="white"/>
<g clip-path="url(#clip0_2_6786)">
<path fill-rule="evenodd" clip-rule="evenodd" d="M32 28.125C29.8168 28.125 28.125 29.8168 28.125 32C28.125 34.1832 29.8168 35.875 32 35.875C34.1832 35.875 35.875 34.1832 35.875 32C35.875 29.8168 34.1832 28.125 32 28.125ZM29.875 32C29.875 30.7832 30.7832 29.875 32 29.875C33.2168 29.875 34.125 30.7832 34.125 32C34.125 33.2168 33.2168 34.125 32 34.125C30.7832 34.125 29.875 33.2168 29.875 32Z" fill="#2F6ED5"/>
<path fill-rule="evenodd" clip-rule="evenodd" d="M20.9813 34.1187C21.5401 34.6776 22.2606 34.975 23 34.975C23.095 34.975 23.229 35.0043 23.4146 35.128C23.5307 35.2054 23.5891 35.258 23.621 35.2938C23.6466 35.3226 23.6594 35.3451 23.6699 35.3767C23.7124 35.5041 23.7444 35.623 23.7588 35.7238C23.7685 35.7918 23.7664 35.826 23.7658 35.8347L23.7658 35.8361C23.7388 35.9214 23.725 36.0104 23.725 36.1C23.725 36.1861 23.6859 36.2767 23.5812 36.3813L23.5506 36.4119C23.3053 36.5846 23.1667 36.8132 23.0976 36.9375C23.0493 37.0245 23.0097 37.1092 22.9815 37.1706L22.9571 37.2239C22.9398 37.2618 22.9291 37.2852 22.9174 37.3087C22.8989 37.3457 22.883 37.384 22.8699 37.4233C22.8601 37.4526 22.8472 37.4876 22.8325 37.5276C22.7547 37.7391 22.625 38.0914 22.625 38.5C22.625 38.9741 22.7764 39.4094 22.9174 39.6913L22.9264 39.7094C23.0178 39.8924 23.153 40.1633 23.4038 40.4376C23.5774 40.6903 23.8112 40.8322 23.9375 40.9024C24.0245 40.9507 24.1092 40.9903 24.1706 41.0185L24.2239 41.0429C24.2619 41.0602 24.2852 41.0709 24.3087 41.0826C24.3457 41.1011 24.384 41.117 24.4233 41.1301C24.4526 41.1399 24.4876 41.1527 24.5276 41.1675C24.739 41.2453 25.0914 41.375 25.5 41.375C25.9741 41.375 26.4094 41.2236 26.6913 41.0826L26.7094 41.0736C26.9104 40.9732 27.2175 40.8199 27.5187 40.5187L27.5505 40.487C27.7124 40.3904 27.886 40.3274 28.138 40.243C28.2003 40.2304 28.2507 40.2316 28.3044 40.2398C28.3821 40.2518 28.4634 40.2768 28.6233 40.3301C28.7671 40.378 28.8954 40.4705 28.972 40.5854C28.9984 40.6251 29.0281 40.6625 29.0606 40.6974C29.0675 40.7107 29.0779 40.7347 29.0887 40.7698C29.1132 40.8496 29.125 40.9379 29.125 41V41.1C29.125 41.8394 29.4224 42.5599 29.9813 43.1187C30.5401 43.6776 31.2606 43.975 32 43.975C32.7394 43.975 33.4599 43.6776 34.0187 43.1187C34.5776 42.5599 34.875 41.8394 34.875 41.1V40.9C34.875 40.805 34.9042 40.6711 35.028 40.4854C35.1054 40.3693 35.158 40.3108 35.1938 40.279C35.2226 40.2534 35.2451 40.2406 35.2767 40.2301C35.4041 40.1876 35.523 40.1556 35.6237 40.1412C35.696 40.1309 35.7302 40.1339 35.7361 40.1342C35.8214 40.1612 35.9104 40.175 36 40.175C36.0861 40.175 36.1767 40.2141 36.2813 40.3187L36.3119 40.3493C36.4846 40.5947 36.7132 40.7333 36.8376 40.8024C36.9245 40.8507 37.0092 40.8903 37.0706 40.9185L37.1239 40.9429C37.1618 40.9602 37.1852 40.9709 37.2087 40.9826C37.2457 41.0011 37.284 41.017 37.3233 41.0301C37.3527 41.0399 37.3876 41.0527 37.4276 41.0675C37.6391 41.1453 37.9914 41.275 38.4 41.275C38.8741 41.275 39.3094 41.1236 39.5913 40.9826L39.6095 40.9735C39.7924 40.8822 40.0633 40.7469 40.3376 40.4962C40.5903 40.3226 40.7322 40.0887 40.8024 39.9624C40.8507 39.8755 40.8903 39.7908 40.9185 39.7294L40.9429 39.6761C40.9602 39.6382 40.9709 39.6148 40.9826 39.5913C41.0011 39.5543 41.017 39.516 41.0301 39.4767C41.0399 39.4473 41.0527 39.4124 41.0675 39.3724C41.1453 39.1609 41.275 38.8086 41.275 38.4C41.275 37.9259 41.1236 37.4906 40.9826 37.2087L40.9735 37.1905C40.8732 36.9896 40.7199 36.6824 40.4187 36.3813L40.3869 36.3495C40.2904 36.1876 40.2274 36.014 40.143 35.762C40.1304 35.6997 40.1316 35.6492 40.1398 35.5955C40.1512 35.5214 40.1745 35.444 40.2229 35.2982C40.2504 35.2877 40.2974 35.2728 40.3716 35.258C40.4837 35.2356 40.5903 35.1914 40.6854 35.128C40.871 35.0043 41.005 34.975 41.1 34.975H41.2C41.9394 34.975 42.6599 34.6776 43.2187 34.1187C43.7776 33.5599 44.075 32.8394 44.075 32.1C44.075 31.3607 43.7776 30.6401 43.2187 30.0813C42.6599 29.5224 41.9393 29.225 41.2 29.225H41C40.905 29.225 40.7711 29.1958 40.5854 29.072C40.4693 28.9946 40.4108 28.942 40.379 28.9062C40.3752 28.902 40.3718 28.8979 40.3685 28.8939C40.3615 28.836 40.3486 28.7788 40.3301 28.7233C40.2876 28.5959 40.2556 28.477 40.2412 28.3762C40.2315 28.3082 40.2336 28.274 40.2342 28.2653L40.2342 28.2639C40.2612 28.1786 40.275 28.0896 40.275 28C40.275 27.9139 40.3141 27.8233 40.4188 27.7187L40.4494 27.6881C40.6947 27.5154 40.8333 27.2868 40.9024 27.1624C40.9507 27.0755 40.9903 26.9908 41.0185 26.9294L41.0429 26.8761C41.0602 26.8382 41.0709 26.8148 41.0826 26.7913C41.1011 26.7543 41.117 26.716 41.1301 26.6767C41.1399 26.6474 41.1527 26.6124 41.1675 26.5724C41.2453 26.361 41.375 26.0086 41.375 25.6C41.375 25.1259 41.2236 24.6906 41.0826 24.4087L41.0736 24.3906C40.9822 24.2076 40.847 23.9367 40.5962 23.6624C40.4226 23.4097 40.1888 23.2678 40.0624 23.1976C39.9755 23.1493 39.8908 23.1097 39.8294 23.0815L39.7762 23.0571C39.7382 23.0398 39.7148 23.0291 39.6913 23.0174C39.6543 22.9989 39.616 22.983 39.5767 22.9699C39.5474 22.9601 39.5124 22.9472 39.4724 22.9325C39.2609 22.8547 38.9086 22.725 38.5 22.725C38.0259 22.725 37.5906 22.8764 37.3087 23.0174L37.2905 23.0264C37.0896 23.1268 36.7824 23.2801 36.4813 23.5813L36.4495 23.6131C36.2876 23.7096 36.114 23.7726 35.862 23.857C35.7997 23.8696 35.7492 23.8684 35.6955 23.8602C35.6178 23.8482 35.5366 23.8232 35.3767 23.7699C35.3451 23.7594 35.3226 23.7466 35.2938 23.721C35.258 23.6892 35.2054 23.6307 35.128 23.5146C35.0043 23.329 34.975 23.195 34.975 23.1V23C34.975 22.2606 34.6776 21.5401 34.1187 20.9813C33.5599 20.4224 32.8394 20.125 32.1 20.125C31.3606 20.125 30.6401 20.4224 30.0813 20.9813C29.5224 21.5402 29.225 22.2606 29.225 23V23.1C29.225 23.195 29.1958 23.3289 29.072 23.5146C28.9946 23.6307 28.942 23.6892 28.9062 23.721C28.902 23.7248 28.8979 23.7282 28.8939 23.7315C28.836 23.7385 28.7788 23.7514 28.7233 23.7699C28.5959 23.8124 28.477 23.8444 28.3763 23.8588C28.3082 23.8685 28.274 23.8664 28.2653 23.8658L28.2639 23.8658C28.1786 23.8388 28.0896 23.825 28 23.825C27.9139 23.825 27.8233 23.7859 27.7187 23.6813L27.6881 23.6507C27.5154 23.4053 27.2868 23.2667 27.1624 23.1976C27.0755 23.1493 26.9908 23.1097 26.9294 23.0815L26.8762 23.0571C26.8382 23.0398 26.8148 23.0291 26.7913 23.0174C26.7543 22.9989 26.716 22.983 26.6767 22.9699C26.6473 22.9601 26.6124 22.9473 26.5724 22.9325C26.361 22.8547 26.0086 22.725 25.6 22.725C25.1259 22.725 24.6906 22.8764 24.4087 23.0174L24.3905 23.0265C24.2076 23.1178 23.9367 23.2531 23.6624 23.5038C23.4097 23.6774 23.2678 23.9113 23.1976 24.0376C23.1493 24.1245 23.1097 24.2092 23.0815 24.2706L23.0571 24.3238C23.0398 24.3618 23.0291 24.3852 23.0174 24.4087C22.9989 24.4457 22.983 24.484 22.9699 24.5233C22.9601 24.5526 22.9473 24.5876 22.9325 24.6276C22.8547 24.8391 22.725 25.1914 22.725 25.6C22.725 26.0741 22.8764 26.5094 23.0174 26.7913L23.0265 26.8095C23.1268 27.0104 23.2801 27.3176 23.5813 27.6187L23.6131 27.6505C23.7096 27.8124 23.7726 27.986 23.857 28.238C23.8696 28.3003 23.8684 28.3508 23.8602 28.4045C23.8482 28.4822 23.8232 28.5634 23.7699 28.7233C23.722 28.8671 23.6295 28.9954 23.5146 29.072C23.4749 29.0984 23.4375 29.1281 23.4026 29.1607C23.3893 29.1675 23.3653 29.1779 23.3302 29.1887C23.2504 29.2132 23.1621 29.225 23.1 29.225H23C22.2606 29.225 21.5402 29.5224 20.9813 30.0813C20.4224 30.6401 20.125 31.3606 20.125 32.1C20.125 32.8394 20.4224 33.5599 20.9813 34.1187ZM31.3187 22.2187C31.5599 21.9776 31.8394 21.875 32.1 21.875C32.3606 21.875 32.6401 21.9776 32.8813 22.2187C33.1224 22.4599 33.225 22.7394 33.225 23V23.1C33.225 23.605 33.3957 24.071 33.672 24.4854C33.9235 24.8627 34.2612 25.2427 34.8233 25.4301L34.8514 25.4395C35.1557 25.5413 35.6632 25.7111 36.3122 25.5489C36.334 25.5434 36.3555 25.5372 36.3767 25.5301L36.4025 25.5215C36.6921 25.4251 37.087 25.2936 37.4854 25.028C37.5333 24.9961 37.578 24.9595 37.6187 24.9187L37.7187 24.8187C37.8084 24.7291 37.8916 24.6825 38.0913 24.5826C38.1421 24.5572 38.2133 24.5283 38.2927 24.5067C38.3728 24.4848 38.4441 24.475 38.5 24.475C38.5435 24.475 38.5818 24.4806 38.6486 24.5006C38.6876 24.5123 38.7317 24.5275 38.7963 24.5506L38.8261 24.5612C38.8672 24.576 38.9156 24.5933 38.9674 24.6112C38.9834 24.6187 38.9987 24.6258 39.0128 24.6323L39.0988 24.6717C39.1412 24.6911 39.1713 24.7056 39.1946 24.7178C39.2209 24.7535 39.2498 24.7873 39.2813 24.8187C39.3709 24.9083 39.4175 24.9917 39.5174 25.1913C39.5428 25.2421 39.5717 25.3133 39.5933 25.3927C39.6152 25.4728 39.625 25.5442 39.625 25.6C39.625 25.6435 39.6194 25.6818 39.5994 25.7486C39.5877 25.7876 39.5725 25.8317 39.5494 25.8963L39.5387 25.9261C39.524 25.9673 39.5067 26.0156 39.4889 26.0674C39.4813 26.0834 39.4742 26.0987 39.4677 26.1128L39.4284 26.1987C39.4089 26.2412 39.3944 26.2713 39.3822 26.2946C39.3465 26.3209 39.3127 26.3499 39.2812 26.3813L39.1813 26.4813C38.9044 26.7581 38.57 27.2231 38.5291 27.8682C38.464 28.1495 38.4795 28.419 38.5088 28.6238C38.5356 28.8112 38.5807 28.9884 38.6258 29.1381C38.6294 29.2193 38.6442 29.2996 38.6699 29.3767C38.8573 29.9388 39.2373 30.2765 39.6146 30.528C40.0289 30.8042 40.495 30.975 41 30.975H41.2C41.4606 30.975 41.7402 31.0776 41.9813 31.3187C42.2224 31.5598 42.325 31.8394 42.325 32.1C42.325 32.3606 42.2224 32.6401 41.9813 32.8813C41.7401 33.1224 41.4606 33.225 41.2 33.225H41.1C40.6535 33.225 40.2375 33.3585 39.8607 33.5803C39.5893 33.6506 39.3288 33.7614 39.1034 33.9417C38.8175 34.1705 38.66 34.4529 38.5699 34.7233L38.5605 34.7514C38.4587 35.0557 38.2889 35.5632 38.4511 36.2122C38.4566 36.2339 38.4628 36.2555 38.4699 36.2767L38.4785 36.3025C38.5749 36.5921 38.7064 36.987 38.972 37.3854C39.0039 37.4333 39.0405 37.478 39.0813 37.5187L39.1813 37.6187C39.2709 37.7083 39.3175 37.7916 39.4174 37.9913C39.4428 38.0421 39.4717 38.1133 39.4933 38.1927C39.5152 38.2728 39.525 38.3441 39.525 38.4C39.525 38.4435 39.5194 38.4818 39.4994 38.5486C39.4877 38.5876 39.4725 38.6317 39.4494 38.6963L39.4388 38.7261C39.424 38.7672 39.4067 38.8156 39.3888 38.8674C39.3813 38.8834 39.3742 38.8987 39.3677 38.9128L39.3283 38.9988C39.3088 39.0412 39.2944 39.0713 39.2822 39.0946C39.2465 39.1209 39.2127 39.1498 39.1813 39.1813C39.0917 39.2709 39.0084 39.3175 38.8087 39.4174C38.7579 39.4428 38.6867 39.4717 38.6073 39.4933C38.5272 39.5152 38.4558 39.525 38.4 39.525C38.3565 39.525 38.3182 39.5194 38.2514 39.4994C38.2124 39.4877 38.1683 39.4725 38.1037 39.4494L38.0738 39.4387C38.0328 39.424 37.9843 39.4066 37.9326 39.3888C37.9166 39.3813 37.9013 39.3742 37.8872 39.3677L37.8012 39.3283C37.7588 39.3088 37.7287 39.2944 37.7054 39.2822C37.6791 39.2465 37.6502 39.2127 37.6187 39.1813L37.5187 39.0813C37.2418 38.8044 36.7769 38.47 36.1318 38.4291C35.8505 38.364 35.581 38.3795 35.3763 38.4088C35.127 38.4444 34.8959 38.5124 34.7233 38.5699C34.1612 38.7573 33.8235 39.1373 33.572 39.5146C33.2958 39.9289 33.125 40.395 33.125 40.9V41.1C33.125 41.3606 33.0224 41.6401 32.7813 41.8813C32.5401 42.1224 32.2606 42.225 32 42.225C31.7394 42.225 31.4599 42.1224 31.2187 41.8813C30.9776 41.6401 30.875 41.3606 30.875 41.1V41C30.875 40.7621 30.8368 40.5004 30.7613 40.2552C30.6964 40.0443 30.5834 39.7781 30.3842 39.5512C30.0628 39.1025 29.6127 38.8152 29.1767 38.6699L29.1486 38.6605C28.8443 38.5587 28.3368 38.3889 27.6878 38.5511C27.666 38.5566 27.6445 38.5628 27.6233 38.5699L27.5976 38.5784C27.308 38.6749 26.9131 38.8064 26.5146 39.072C26.4667 39.1039 26.4221 39.1405 26.3813 39.1812L26.2813 39.2813C26.1916 39.3709 26.1083 39.4176 25.9087 39.5174C25.8579 39.5428 25.7867 39.5717 25.7073 39.5933C25.6272 39.6152 25.5559 39.625 25.5 39.625C25.4565 39.625 25.4182 39.6194 25.3514 39.5994C25.3124 39.5877 25.2683 39.5725 25.2037 39.5494L25.1739 39.5388C25.1328 39.524 25.0843 39.5066 25.0326 39.4888C25.0166 39.4813 25.0013 39.4742 24.9872 39.4677L24.9013 39.4284C24.8588 39.4089 24.8287 39.3944 24.8054 39.3822C24.7791 39.3465 24.7502 39.3127 24.7187 39.2813C24.6291 39.1916 24.5824 39.1083 24.4826 38.9087C24.4572 38.8579 24.4283 38.7867 24.4067 38.7073C24.3848 38.6272 24.375 38.5559 24.375 38.5C24.375 38.4565 24.3806 38.4182 24.4006 38.3514C24.4123 38.3124 24.4275 38.2683 24.4506 38.2037L24.4612 38.1739C24.476 38.1328 24.4933 38.0844 24.5112 38.0326L24.5323 37.9872L24.5716 37.9013C24.5911 37.8588 24.6056 37.8287 24.6177 37.8054C24.6535 37.7791 24.6873 37.7502 24.7188 37.7187L24.8187 37.6187C25.0956 37.3419 25.43 36.8769 25.4709 36.2318C25.536 35.9505 25.5205 35.681 25.4912 35.4763C25.4556 35.227 25.3876 34.9959 25.3301 34.8233C25.1427 34.2612 24.7627 33.9235 24.3854 33.672C23.971 33.3957 23.505 33.225 23 33.225C22.7394 33.225 22.4599 33.1224 22.2187 32.8813C21.9776 32.6401 21.875 32.3606 21.875 32.1C21.875 31.8394 21.9776 31.5599 22.2187 31.3187C22.4599 31.0776 22.7394 30.975 23 30.975H23.1C23.3379 30.975 23.5996 30.9368 23.8448 30.8613C24.0557 30.7964 24.3219 30.6834 24.5488 30.4842C24.9975 30.1628 25.2848 29.7127 25.4301 29.2767L25.4395 29.2486C25.5413 28.9443 25.7111 28.4368 25.5489 27.7878C25.5434 27.7661 25.5372 27.7445 25.5301 27.7233L25.5215 27.6975C25.4251 27.4079 25.2936 27.013 25.028 26.6146C24.9961 26.5667 24.9595 26.522 24.9187 26.4813L24.8187 26.3813C24.7291 26.2917 24.6825 26.2084 24.5826 26.0087C24.5572 25.9579 24.5283 25.8867 24.5067 25.8073C24.4848 25.7272 24.475 25.6559 24.475 25.6C24.475 25.5565 24.4806 25.5182 24.5006 25.4514C24.5123 25.4124 24.5275 25.3683 24.5506 25.3037L24.5612 25.2739C24.576 25.2328 24.5933 25.1844 24.6112 25.1326L24.6323 25.0872L24.6717 25.0012C24.6912 24.9588 24.7056 24.9287 24.7178 24.9054C24.7535 24.8791 24.7873 24.8502 24.8187 24.8187C24.9083 24.7291 24.9916 24.6825 25.1913 24.5826C25.2421 24.5572 25.3133 24.5283 25.3927 24.5067C25.4728 24.4848 25.5442 24.475 25.6 24.475C25.6435 24.475 25.6818 24.4806 25.7486 24.5006C25.7876 24.5123 25.8317 24.5275 25.8963 24.5506L25.9261 24.5612C25.9672 24.576 26.0156 24.5933 26.0674 24.6112C26.0834 24.6187 26.0987 24.6258 26.1128 24.6323L26.1988 24.6717C26.2412 24.6912 26.2713 24.7056 26.2946 24.7178C26.3209 24.7535 26.3498 24.7873 26.3813 24.8187L26.4813 24.9187C26.7582 25.1956 27.2231 25.53 27.8682 25.5709C28.1495 25.636 28.419 25.6205 28.6237 25.5912C28.8112 25.5644 28.9884 25.5194 29.1381 25.4742C29.2192 25.4706 29.2996 25.4558 29.3767 25.4301C29.9388 25.2427 30.2765 24.8627 30.528 24.4854C30.8042 24.0711 30.975 23.605 30.975 23.1V23C30.975 22.7394 31.0776 22.4599 31.3187 22.2187Z" fill="#2F6ED5"/>
</g>
<defs>
<clipPath id="clip0_2_6786">
<rect width="24" height="24" fill="white" transform="translate(20 20)"/>
</clipPath>
</defs>
</svg>
