<svg width="64" height="64" viewBox="0 0 64 64" fill="none" xmlns="http://www.w3.org/2000/svg">
<rect width="64" height="64" rx="32" fill="white"/>
<path fill-rule="evenodd" clip-rule="evenodd" d="M39.6187 24.3813C39.9604 24.723 39.9604 25.277 39.6187 25.6187L25.6187 39.6187C25.277 39.9604 24.723 39.9604 24.3813 39.6187C24.0396 39.277 24.0396 38.723 24.3813 38.3813L38.3813 24.3813C38.723 24.0396 39.277 24.0396 39.6187 24.3813Z" fill="#2F6ED5"/>
<path fill-rule="evenodd" clip-rule="evenodd" d="M26.5 24.875C25.6025 24.875 24.875 25.6025 24.875 26.5C24.875 27.3975 25.6025 28.125 26.5 28.125C27.3975 28.125 28.125 27.3975 28.125 26.5C28.125 25.6025 27.3975 24.875 26.5 24.875ZM23.125 26.5C23.125 24.636 24.636 23.125 26.5 23.125C28.364 23.125 29.875 24.636 29.875 26.5C29.875 28.364 28.364 29.875 26.5 29.875C24.636 29.875 23.125 28.364 23.125 26.5Z" fill="#2F6ED5"/>
<path fill-rule="evenodd" clip-rule="evenodd" d="M37.5 35.875C36.6025 35.875 35.875 36.6025 35.875 37.5C35.875 38.3975 36.6025 39.125 37.5 39.125C38.3975 39.125 39.125 38.3975 39.125 37.5C39.125 36.6025 38.3975 35.875 37.5 35.875ZM34.125 37.5C34.125 35.636 35.636 34.125 37.5 34.125C39.364 34.125 40.875 35.636 40.875 37.5C40.875 39.364 39.364 40.875 37.5 40.875C35.636 40.875 34.125 39.364 34.125 37.5Z" fill="#2F6ED5"/>
</svg>
