<svg width="16" height="16" viewBox="0 0 16 16" fill="none" xmlns="http://www.w3.org/2000/svg">
<g clip-path="url(#clip0_9702_4119)">
<path d="M8.00246 3.89209C5.73379 3.89209 3.89713 5.73076 3.89713 7.99742C3.89713 10.2661 5.73579 12.1028 8.00246 12.1028C10.2711 12.1028 12.1078 10.2641 12.1078 7.99742C12.1078 5.72876 10.2691 3.89209 8.00246 3.89209ZM8.00246 10.6621C6.52979 10.6621 5.33779 9.46942 5.33779 7.99742C5.33779 6.52542 6.53046 5.33276 8.00246 5.33276C9.47446 5.33276 10.6671 6.52542 10.6671 7.99742C10.6678 9.46942 9.47513 10.6621 8.00246 10.6621Z" fill="#333D4C"/>
<path d="M11.2986 0.0509902C9.8266 -0.0176765 6.1806 -0.0143431 4.70727 0.0509902C3.4126 0.111657 2.2706 0.424323 1.34994 1.34499C-0.188729 2.88366 0.00793789 4.95699 0.00793789 7.99766C0.00793789 11.1097 -0.165395 13.135 1.34994 14.6503C2.8946 16.1943 4.99794 15.9923 8.0026 15.9923C11.0853 15.9923 12.1493 15.9943 13.2393 15.5723C14.7213 14.997 15.8399 13.6723 15.9493 11.293C16.0186 9.82032 16.0146 6.17499 15.9493 4.70166C15.8173 1.89299 14.3099 0.189657 11.2986 0.0509902ZM13.6286 13.6323C12.6199 14.641 11.2206 14.551 7.98327 14.551C4.64994 14.551 3.31327 14.6003 2.33794 13.6223C1.2146 12.5043 1.41794 10.709 1.41794 7.98699C1.41794 4.30366 1.03994 1.65099 4.7366 1.46166C5.58594 1.43166 5.83594 1.42166 7.97394 1.42166L8.00394 1.44166C11.5566 1.44166 14.3439 1.06966 14.5113 4.76566C14.5493 5.60899 14.5579 5.86232 14.5579 7.99699C14.5573 11.2917 14.6199 12.6363 13.6286 13.6323Z" fill="#333D4C"/>
<path d="M12.2707 4.68942C12.8005 4.68942 13.23 4.25991 13.23 3.73009C13.23 3.20026 12.8005 2.77075 12.2707 2.77075C11.7408 2.77075 11.3113 3.20026 11.3113 3.73009C11.3113 4.25991 11.7408 4.68942 12.2707 4.68942Z" fill="#333D4C"/>
</g>
<defs>
<clipPath id="clip0_9702_4119">
<rect width="16" height="16" fill="white"/>
</clipPath>
</defs>
</svg>
