<svg width="18" height="18" viewBox="0 0 18 18" fill="none" xmlns="http://www.w3.org/2000/svg">
<g clip-path="url(#clip0_3_1693)">
<path d="M8.99846 3.65625C8.51912 3.65512 8.04129 3.70973 7.57457 3.81898C7.22167 3.90158 6.86863 3.68247 6.78602 3.32957C6.70342 2.97667 6.92253 2.62363 7.27543 2.54102C7.84096 2.40865 8.41995 2.34245 9.00076 2.34375C11.8876 2.34404 14.1112 3.99249 15.5725 5.55116C16.3092 6.33695 16.8719 7.12024 17.2505 7.70647C17.4402 8.00021 17.5848 8.24615 17.6828 8.42045C17.7319 8.50765 17.7693 8.57704 17.7951 8.62568C17.8079 8.65 17.8179 8.66914 17.8249 8.68273L17.8331 8.69892L17.8356 8.70381L17.8364 8.70544C17.8364 8.70544 17.837 8.70651 17.2509 8.99953L17.837 8.70651C17.9322 8.8969 17.9291 9.12164 17.8288 9.30936C17.352 10.2014 16.7833 11.0411 16.1321 11.815C15.8988 12.0923 15.4848 12.128 15.2075 11.8946C14.9302 11.6613 14.8945 11.2473 15.1279 10.97C15.6448 10.3556 16.1046 9.69558 16.5016 8.99818C16.4164 8.84934 16.2982 8.65114 16.1479 8.41853C15.8 7.87976 15.2846 7.16305 14.615 6.44884C13.2639 5.00765 11.3628 3.65625 9 3.65625L8.99846 3.65625Z" fill="#4E5562"/>
<path d="M5.06657 4.14672C5.28654 4.43478 5.23134 4.84661 4.94328 5.06657C3.5428 6.13599 2.37193 7.47461 1.49879 9.00243C1.58394 9.1512 1.70203 9.34917 1.85206 9.58147C2.20001 10.1202 2.71544 10.837 3.38501 11.5512C4.73511 12.9913 6.63431 14.3417 8.99466 14.3437C10.4645 14.3186 11.8879 13.8243 13.0572 12.9331C13.3454 12.7134 13.7572 12.7689 13.9769 13.0572C14.1966 13.3454 14.1411 13.7572 13.8528 13.9769C12.4594 15.0391 10.7626 15.6275 9.01073 15.6562L9 15.6562C6.11282 15.6562 3.88888 14.0076 2.42749 12.4488C1.69081 11.663 1.12811 10.8798 0.749505 10.2935C0.559794 9.99979 0.415232 9.75384 0.317189 9.57955C0.268143 9.49235 0.230664 9.42296 0.204929 9.37432C0.192059 9.35 0.182118 9.33086 0.17513 9.31727L0.166862 9.30108L0.164391 9.29619L0.163573 9.29456C0.163573 9.29456 0.163032 9.29348 0.75 9L0.163032 9.29348C0.0676715 9.10276 0.0709194 8.8776 0.171742 8.68971C1.1489 6.86868 2.5042 5.27767 4.14672 4.02343C4.43478 3.80346 4.84661 3.85866 5.06657 4.14672Z" fill="#4E5562"/>
<path d="M7.89012 6.96262C8.1372 7.22778 8.12254 7.64304 7.85738 7.89012C7.7008 8.03603 7.5752 8.21198 7.4881 8.40748C7.40099 8.60297 7.35415 8.81402 7.35037 9.02801C7.3466 9.242 7.38596 9.45456 7.46612 9.65301C7.54628 9.85146 7.66558 10.0317 7.81692 10.1831C7.96826 10.3344 8.14854 10.4537 8.34699 10.5339C8.54544 10.614 8.758 10.6534 8.97199 10.6496C9.18598 10.6459 9.39702 10.599 9.59252 10.5119C9.78802 10.4248 9.96397 10.2992 10.1099 10.1426C10.357 9.87746 10.7722 9.8628 11.0374 10.1099C11.3025 10.357 11.3172 10.7722 11.0701 11.0374C10.8041 11.3229 10.4832 11.5519 10.1267 11.7108C9.77021 11.8696 9.38537 11.955 8.99514 11.9619C8.60492 11.9688 8.21731 11.897 7.85543 11.7509C7.49355 11.6047 7.16482 11.3871 6.88885 11.1112C6.61287 10.8352 6.39531 10.5064 6.24914 10.1446C6.10298 9.78269 6.03119 9.39508 6.03808 9.00485C6.04496 8.61463 6.13038 8.22979 6.28922 7.87329C6.44806 7.5168 6.67708 7.19595 6.96262 6.92988C7.22778 6.6828 7.64304 6.69746 7.89012 6.96262Z" fill="#4E5562"/>
<path fill-rule="evenodd" clip-rule="evenodd" d="M0.285961 0.285961C0.542243 0.0296796 0.957757 0.0296796 1.21404 0.285961L17.714 16.786C17.9703 17.0422 17.9703 17.4578 17.714 17.714C17.4578 17.9703 17.0422 17.9703 16.786 17.714L0.285961 1.21404C0.0296797 0.957757 0.0296797 0.542243 0.285961 0.285961Z" fill="#4E5562"/>
</g>
<defs>
<clipPath id="clip0_3_1693">
<rect width="18" height="18" fill="white"/>
</clipPath>
</defs>
</svg>
