<svg width="64" height="64" viewBox="0 0 64 64" fill="none" xmlns="http://www.w3.org/2000/svg">
<rect width="64" height="64" rx="32" fill="white"/>
<path fill-rule="evenodd" clip-rule="evenodd" d="M24 31.125C24.4832 31.125 24.875 31.5168 24.875 32V41.125H39.125V32C39.125 31.5168 39.5168 31.125 40 31.125C40.4832 31.125 40.875 31.5168 40.875 32V42C40.875 42.4832 40.4832 42.875 40 42.875H24C23.5168 42.875 23.125 42.4832 23.125 42V32C23.125 31.5168 23.5168 31.125 24 31.125Z" fill="#2F6ED5"/>
<path fill-rule="evenodd" clip-rule="evenodd" d="M21.125 27C21.125 26.5168 21.5168 26.125 22 26.125H42C42.4832 26.125 42.875 26.5168 42.875 27V32C42.875 32.4832 42.4832 32.875 42 32.875H22C21.5168 32.875 21.125 32.4832 21.125 32V27ZM22.875 27.875V31.125H41.125V27.875H22.875Z" fill="#2F6ED5"/>
<path fill-rule="evenodd" clip-rule="evenodd" d="M32 26.125C32.4832 26.125 32.875 26.5168 32.875 27V42C32.875 42.4832 32.4832 42.875 32 42.875C31.5168 42.875 31.125 42.4832 31.125 42V27C31.125 26.5168 31.5168 26.125 32 26.125Z" fill="#2F6ED5"/>
<path fill-rule="evenodd" clip-rule="evenodd" d="M27.5 22.875C27.069 22.875 26.6557 23.0462 26.351 23.351C26.0462 23.6557 25.875 24.069 25.875 24.5C25.875 24.931 26.0462 25.3443 26.351 25.649C26.6557 25.9538 27.069 26.125 27.5 26.125H30.8338C30.7017 25.7586 30.5247 25.3379 30.2958 24.9217C29.6595 23.7648 28.7634 22.875 27.5 22.875ZM32 27C32.858 26.8284 32.8579 26.8278 32.8579 26.8278L32.8574 26.8252L32.8563 26.8202L32.8531 26.8048C32.8505 26.7921 32.8467 26.7748 32.8419 26.7531C32.8322 26.7098 32.8181 26.6489 32.7991 26.5729C32.7611 26.4212 32.7036 26.2084 32.6232 25.9546C32.4635 25.4502 32.2087 24.7683 31.8292 24.0783C31.0905 22.7352 29.7366 21.125 27.5 21.125C26.6049 21.125 25.7464 21.4806 25.1135 22.1135C24.4806 22.7464 24.125 23.6049 24.125 24.5C24.125 25.3951 24.4806 26.2536 25.1135 26.8865C25.7464 27.5194 26.6049 27.875 27.5 27.875H32C32.2621 27.875 32.5105 27.7575 32.6767 27.5547C32.8429 27.352 32.9093 27.0848 32.8579 26.8278L32 27Z" fill="#2F6ED5"/>
<path fill-rule="evenodd" clip-rule="evenodd" d="M32.1708 24.0783C32.9095 22.7352 34.2634 21.125 36.5 21.125C37.3951 21.125 38.2536 21.4806 38.8865 22.1135C39.5194 22.7464 39.875 23.6049 39.875 24.5C39.875 25.3951 39.5194 26.2536 38.8865 26.8865C38.2536 27.5194 37.3951 27.875 36.5 27.875H32C31.7379 27.875 31.4895 27.7575 31.3233 27.5547C31.1571 27.352 31.0906 27.0855 31.142 26.8284L32 27C31.142 26.8284 31.142 26.8284 31.142 26.8284L31.1426 26.8252L31.1437 26.8202L31.1469 26.8048C31.1495 26.7921 31.1533 26.7748 31.1581 26.7531C31.1678 26.7098 31.1819 26.6489 31.2009 26.5729C31.2389 26.4212 31.2964 26.2084 31.3768 25.9546C31.5365 25.4502 31.7913 24.7683 32.1708 24.0783ZM33.1662 26.125H36.5C36.931 26.125 37.3443 25.9538 37.649 25.649C37.9538 25.3443 38.125 24.931 38.125 24.5C38.125 24.069 37.9538 23.6557 37.649 23.351C37.3443 23.0462 36.931 22.875 36.5 22.875C35.2366 22.875 34.3405 23.7648 33.7042 24.9217C33.4753 25.3379 33.2983 25.7586 33.1662 26.125Z" fill="#2F6ED5"/>
</svg>
