<svg width="16" height="16" viewBox="0 0 16 16" fill="none" xmlns="http://www.w3.org/2000/svg">
<g clip-path="url(#clip0_9702_1965)">
<path fill-rule="evenodd" clip-rule="evenodd" d="M5.99998 13.9167C5.95396 13.9167 5.91665 13.954 5.91665 14C5.91665 14.0461 5.95396 14.0834 5.99998 14.0834C6.046 14.0834 6.08331 14.0461 6.08331 14C6.08331 13.954 6.046 13.9167 5.99998 13.9167ZM4.74998 14C4.74998 13.3097 5.30962 12.75 5.99998 12.75C6.69034 12.75 7.24998 13.3097 7.24998 14C7.24998 14.6904 6.69034 15.25 5.99998 15.25C5.30962 15.25 4.74998 14.6904 4.74998 14Z" fill="#333D4C"/>
<path fill-rule="evenodd" clip-rule="evenodd" d="M13.3333 13.9167C13.2873 13.9167 13.25 13.954 13.25 14C13.25 14.0461 13.2873 14.0834 13.3333 14.0834C13.3793 14.0834 13.4166 14.0461 13.4166 14C13.4166 13.954 13.3793 13.9167 13.3333 13.9167ZM12.0833 14C12.0833 13.3097 12.643 12.75 13.3333 12.75C14.0237 12.75 14.5833 13.3097 14.5833 14C14.5833 14.6904 14.0237 15.25 13.3333 15.25C12.643 15.25 12.0833 14.6904 12.0833 14Z" fill="#333D4C"/>
<path fill-rule="evenodd" clip-rule="evenodd" d="M0.083313 0.666707C0.083313 0.344541 0.34448 0.083374 0.666646 0.083374H3.33331C3.61135 0.083374 3.85074 0.279599 3.9053 0.552224L4.47863 3.41671H15.3333C15.5072 3.41671 15.672 3.49425 15.7828 3.6282C15.8936 3.76215 15.9389 3.93854 15.9063 4.10931L14.8388 9.70702C14.7512 10.1482 14.5111 10.5446 14.1607 10.8266C13.8119 11.1074 13.3758 11.2572 12.9282 11.25H6.45841C6.01079 11.2572 5.57471 11.1074 5.22589 10.8266C4.87562 10.5447 4.63564 10.1485 4.54792 9.70752L3.43377 4.14091C3.42956 4.12394 3.42609 4.10667 3.42341 4.08914L2.85516 1.25004H0.666646C0.34448 1.25004 0.083313 0.988873 0.083313 0.666707ZM4.71213 4.58337L5.69214 9.47973C5.72643 9.65238 5.82035 9.80747 5.95747 9.91784C6.09458 10.0282 6.26615 10.0869 6.44214 10.0835L6.45331 10.0834H12.9333L12.9445 10.0835C13.1205 10.0869 13.292 10.0282 13.4292 9.91784C13.5658 9.80787 13.6595 9.65352 13.6941 9.48163L13.6945 9.47973L14.6282 4.58337H4.71213Z" fill="#333D4C"/>
</g>
<defs>
<clipPath id="clip0_9702_1965">
<rect width="16" height="16" fill="white"/>
</clipPath>
</defs>
</svg>
