<svg width="16" height="16" viewBox="0 0 16 16" fill="none" xmlns="http://www.w3.org/2000/svg">
<path fill-rule="evenodd" clip-rule="evenodd" d="M7.99992 1.33334C7.63537 1.33334 7.27022 1.44293 6.95725 1.66201L2.10877 5.05595C1.62273 5.39619 1.33325 5.95217 1.33325 6.54547V12.8485C1.33325 13.8526 2.14728 14.6667 3.15143 14.6667H12.8484C13.8526 14.6667 14.6666 13.8526 14.6666 12.8485V6.54547C14.6666 5.95217 14.3771 5.39619 13.8911 5.05595L9.04259 1.66201C8.72962 1.44293 8.36446 1.33334 7.99992 1.33334ZM13.4545 6.54547C13.4545 6.3477 13.358 6.16237 13.196 6.04896L8.34749 2.65502C8.24307 2.58196 8.1218 2.54546 7.99992 2.54546C7.87804 2.54546 7.75677 2.58196 7.65234 2.65502L2.80388 6.04896C2.64186 6.16237 2.54537 6.3477 2.54537 6.54547V12.8485C2.54537 13.1832 2.81672 13.4546 3.15143 13.4546H5.57568V11.0303C5.57568 10.0261 6.38971 9.21213 7.39386 9.21213H8.60598C9.61016 9.21213 10.4242 10.0261 10.4242 11.0303V13.4546H12.8484C13.1831 13.4546 13.4545 13.1832 13.4545 12.8485V6.54547ZM9.21204 13.4546V11.0303C9.21204 10.6956 8.94071 10.4243 8.60598 10.4243H7.39386C7.05913 10.4243 6.7878 10.6956 6.7878 11.0303V13.4546H9.21204Z" fill="#2F6ED5"/>
</svg>
