<svg width="58" height="40" viewBox="0 0 58 40" fill="none" xmlns="http://www.w3.org/2000/svg">
<rect x="0.000244141" width="58" height="40" rx="6" fill="#222934"/>
<path fill-rule="evenodd" clip-rule="evenodd" d="M12.9255 14.0005H9.7331C9.51464 14.0005 9.32884 14.1602 9.29477 14.377L8.00359 22.6104C7.97793 22.7729 8.10303 22.9193 8.26688 22.9193H9.79097C10.0094 22.9193 10.1952 22.7596 10.2293 22.5424L10.5775 20.3217C10.6111 20.1043 10.7974 19.9448 11.0154 19.9448H12.026C14.129 19.9448 15.3426 18.9213 15.6597 16.8931C15.8025 16.0058 15.6657 15.3086 15.2525 14.8202C14.7988 14.2842 13.994 14.0005 12.9255 14.0005ZM13.2938 17.0076C13.1193 18.1598 12.244 18.1598 11.3977 18.1598H10.916L11.2539 16.008C11.274 15.8781 11.386 15.7823 11.5167 15.7823H11.7375C12.314 15.7823 12.8579 15.7823 13.1389 16.1127C13.3064 16.31 13.3578 16.6029 13.2938 17.0076ZM22.4684 16.9707H20.9397C20.8094 16.9707 20.6969 17.0665 20.6768 17.1966L20.6092 17.6266L20.5022 17.4708C20.1713 16.9876 19.4334 16.8262 18.6967 16.8262C17.0072 16.8262 15.5644 18.113 15.2834 19.9183C15.1374 20.8186 15.3449 21.6796 15.8528 22.2801C16.3188 22.8322 16.9854 23.0623 17.7784 23.0623C19.1396 23.0623 19.8946 22.1819 19.8946 22.1819L19.8263 22.6093C19.8006 22.7727 19.9257 22.9191 20.0885 22.9191H21.4657C21.6847 22.9191 21.8694 22.7594 21.904 22.5421L22.7303 17.2796C22.7564 17.1178 22.6318 16.9707 22.4684 16.9707ZM20.3374 19.9632C20.1899 20.8416 19.4966 21.4313 18.6127 21.4313C18.1688 21.4313 17.8138 21.2881 17.5862 21.0168C17.3602 20.7473 17.2742 20.3637 17.3462 19.9365C17.484 19.0655 18.1889 18.4568 19.0594 18.4568C19.4934 18.4568 19.8464 18.6017 20.0788 18.8754C20.3117 19.152 20.4042 19.5378 20.3374 19.9632ZM29.0741 16.9705H30.6105C30.8256 16.9705 30.9511 17.2131 30.8289 17.3906L25.7193 24.8084C25.6366 24.9286 25.5003 25 25.3547 25H23.8203C23.6043 25 23.4781 24.7554 23.6032 24.5775L25.1942 22.3188L23.5021 17.3244C23.4436 17.1508 23.571 16.9705 23.7546 16.9705H25.2642C25.4603 16.9705 25.6334 17.1 25.69 17.2888L26.588 20.3052L28.7069 17.1662C28.7899 17.0437 28.9277 16.9705 29.0741 16.9705Z" fill="white"/>
<path fill-rule="evenodd" clip-rule="evenodd" d="M45.7291 22.6103L47.0393 14.2264C47.0594 14.0962 47.1715 14.0004 47.3017 14H48.7767C48.9396 14 49.0647 14.1469 49.039 14.3094L47.747 22.5423C47.7133 22.7596 47.5275 22.9193 47.3087 22.9193H45.9914C45.8285 22.9193 45.7034 22.7728 45.7291 22.6103ZM35.6952 14.0004H32.5022C32.2842 14.0004 32.0984 14.1601 32.0643 14.3769L30.7731 22.6103C30.7474 22.7728 30.8725 22.9193 31.0356 22.9193H32.6739C32.8262 22.9193 32.9565 22.8076 32.9802 22.6555L33.3466 20.3217C33.3803 20.1042 33.5665 19.9447 33.7845 19.9447H34.7946C36.898 19.9447 38.1114 18.9212 38.4287 16.8931C38.5719 16.0058 38.4343 15.3086 38.0213 14.8202C37.5678 14.2842 36.7636 14.0004 35.6952 14.0004ZM36.0635 17.0076C35.8894 18.1597 35.0141 18.1597 34.1673 18.1597H33.686L34.0245 16.0079C34.0445 15.878 34.1556 15.7822 34.2867 15.7822H34.5075C35.0836 15.7822 35.628 15.7822 35.9088 16.1127C36.0764 16.3099 36.1274 16.6028 36.0635 17.0076ZM45.2372 16.9706H43.7095C43.5782 16.9706 43.4667 17.0664 43.4471 17.1966L43.3795 17.6265L43.2721 17.4708C42.9411 16.9876 42.2037 16.8261 41.467 16.8261C39.7775 16.8261 38.3352 18.113 38.0541 19.9182C37.9085 20.8186 38.1152 21.6796 38.6231 22.2801C39.0899 22.8321 39.7557 23.0622 40.5487 23.0622C41.9099 23.0622 42.6646 22.1819 42.6646 22.1819L42.5966 22.6092C42.5709 22.7726 42.696 22.919 42.8599 22.919H44.2364C44.4544 22.919 44.6401 22.7594 44.6743 22.5421L45.501 17.2796C45.5263 17.1177 45.4012 16.9706 45.2372 16.9706ZM43.1064 19.9632C42.9597 20.8416 42.2657 21.4312 41.3815 21.4312C40.9384 21.4312 40.5828 21.2881 40.3549 21.0167C40.129 20.7473 40.0441 20.3636 40.1152 19.9365C40.2536 19.0655 40.9576 18.4567 41.8282 18.4567C42.2624 18.4567 42.6152 18.6016 42.8478 18.8754C43.0816 19.1519 43.174 19.5378 43.1064 19.9632Z" fill="#179BD7"/>
</svg>
