<svg width="12" height="13" viewBox="0 0 12 13" fill="none" xmlns="http://www.w3.org/2000/svg">
<path fill-rule="evenodd" clip-rule="evenodd" d="M5.99806 1.25C6.16458 1.25 6.31666 1.34453 6.39037 1.49385L7.83367 4.41783L11.0613 4.8896C11.2261 4.91368 11.3629 5.02918 11.4142 5.18756C11.4656 5.34594 11.4226 5.51974 11.3033 5.63591L8.96816 7.91035L9.51926 11.1235C9.54742 11.2877 9.47993 11.4536 9.34519 11.5515C9.21045 11.6493 9.03183 11.6622 8.88443 11.5847L5.99806 10.0668L3.11169 11.5847C2.96429 11.6622 2.78567 11.6493 2.65093 11.5515C2.51619 11.4536 2.4487 11.2877 2.47686 11.1235L3.02796 7.91035L0.692802 5.63591C0.573531 5.51974 0.530537 5.34594 0.581889 5.18756C0.633242 5.02918 0.77004 4.91368 0.934785 4.8896L4.16245 4.41783L5.60575 1.49385C5.67946 1.34453 5.83154 1.25 5.99806 1.25ZM5.99806 2.67592L4.84537 5.01115C4.7817 5.14014 4.65868 5.22959 4.51633 5.2504L1.93799 5.62726L3.80332 7.44409C3.90651 7.54461 3.95361 7.68948 3.92926 7.83146L3.48914 10.3976L5.79443 9.18528C5.92191 9.11824 6.07421 9.11824 6.20169 9.18528L8.50698 10.3976L8.06686 7.83146C8.0425 7.68948 8.08961 7.54461 8.1928 7.44409L10.0581 5.62726L7.47978 5.2504C7.33744 5.22959 7.21442 5.14014 7.15075 5.01115L5.99806 2.67592Z" fill="#9CA3AF"/>
</svg>
