<svg width="12" height="13" viewBox="0 0 12 13" fill="none" xmlns="http://www.w3.org/2000/svg">
<path d="M6.44837 1.27869C6.36413 1.10804 6.19032 1 6.00001 1C5.80971 1 5.6359 1.10804 5.55166 1.27869L4.12288 4.17323L0.9277 4.64026C0.73942 4.66778 0.58308 4.79978 0.524392 4.98078C0.465703 5.16179 0.514839 5.36041 0.651148 5.49318L2.96275 7.74468L2.41721 10.9255C2.38504 11.1131 2.46216 11.3027 2.61615 11.4145C2.77014 11.5264 2.97428 11.5411 3.14274 11.4525L6.00001 9.94992L8.85729 11.4525C9.02575 11.5411 9.22989 11.5264 9.38388 11.4145C9.53787 11.3027 9.61499 11.1131 9.58282 10.9255L9.03728 7.74468L11.3489 5.49318C11.4852 5.36041 11.5343 5.16179 11.4756 4.98078C11.4169 4.79978 11.2606 4.66778 11.0723 4.64026L7.87715 4.17323L6.44837 1.27869Z" fill="#FC9231"/>
</svg>
