<svg width="12" height="13" viewBox="0 0 12 13" fill="none" xmlns="http://www.w3.org/2000/svg">
<path d="M6.50892 1.52869C6.42468 1.35804 6.25087 1.25 6.06056 1.25C5.87025 1.25 5.69644 1.35804 5.61221 1.52869L4.18343 4.42323L0.988247 4.89026C0.799967 4.91778 0.643627 5.04978 0.584938 5.23078C0.52625 5.41179 0.575386 5.61041 0.711695 5.74318L3.0233 7.99468L2.47776 11.1755C2.44558 11.3631 2.52271 11.5527 2.67669 11.6645C2.83068 11.7764 3.03483 11.7911 3.20329 11.7025L6.06056 10.1999L8.91784 11.7025C9.08629 11.7911 9.29044 11.7764 9.44443 11.6645C9.59842 11.5527 9.67554 11.3631 9.64337 11.1755L9.09782 7.99468L11.4094 5.74318C11.5457 5.61041 11.5949 5.41179 11.5362 5.23078C11.4775 5.04978 11.3212 4.91778 11.1329 4.89026L7.93769 4.42323L6.50892 1.52869Z" fill="#FC9231"/>
</svg>
