<svg width="12" height="13" viewBox="0 0 12 13" fill="none" xmlns="http://www.w3.org/2000/svg">
<path fill-rule="evenodd" clip-rule="evenodd" d="M5.93751 1.5C6.10403 1.5 6.25612 1.59453 6.32982 1.74385L7.77313 4.66783L11.0008 5.1396C11.1655 5.16368 11.3023 5.27918 11.3537 5.43756C11.405 5.59594 11.362 5.76974 11.2428 5.88591L8.90762 8.16035L9.45872 11.3735C9.48687 11.5377 9.41939 11.7036 9.28465 11.8015C9.14991 11.8993 8.97128 11.9122 8.82388 11.8347L5.93751 10.3168L3.05115 11.8347C2.90375 11.9122 2.72512 11.8993 2.59038 11.8015C2.45564 11.7036 2.38816 11.5377 2.41631 11.3735L2.96741 8.16035L0.632255 5.88591C0.512984 5.76974 0.46999 5.59594 0.521343 5.43756C0.572695 5.27918 0.709493 5.16368 0.874238 5.1396L4.1019 4.66783L5.5452 1.74385C5.61891 1.59453 5.77099 1.5 5.93751 1.5ZM5.93751 2.92592L4.78482 5.26115C4.72115 5.39014 4.59813 5.47959 4.45579 5.5004L1.87744 5.87726L3.74277 7.69409C3.84597 7.79461 3.89307 7.93948 3.86872 8.08146L3.42859 10.6476L5.73388 9.43528C5.86136 9.36824 6.01367 9.36824 6.14115 9.43528L8.44643 10.6476L8.00631 8.08146C7.98196 7.93948 8.02906 7.79461 8.13225 7.69409L9.99758 5.87726L7.41924 5.5004C7.2769 5.47959 7.15388 5.39014 7.0902 5.26115L5.93751 2.92592Z" fill="#CAD0D9"/>
</svg>
